<mxfile host="app.diagrams.net" agent="Mozilla/5.0 (Macintosh; Intel Mac OS X 10_15_7) AppleWebKit/537.36 (KHTML, like Gecko) Chrome/132.0.0.0 Safari/537.36" version="26.0.11">
  <diagram name="Page-1" id="gfBi33ZfffTsc9hHtpzU">
    <mxGraphModel dx="1026" dy="586" grid="1" gridSize="10" guides="1" tooltips="1" connect="1" arrows="1" fold="1" page="1" pageScale="1" pageWidth="850" pageHeight="1100" math="0" shadow="0">
      <root>
        <mxCell id="0" />
        <mxCell id="1" parent="0" />
        <mxCell id="9a2qwzENR8iIRFwrXo3I-1" value="Github" style="rounded=0;whiteSpace=wrap;html=1;" vertex="1" parent="1">
          <mxGeometry width="120" height="60" as="geometry" />
        </mxCell>
        <mxCell id="9a2qwzENR8iIRFwrXo3I-2" value="NextJS - Frontend" style="rounded=0;whiteSpace=wrap;html=1;" vertex="1" parent="1">
          <mxGeometry y="120" width="120" height="60" as="geometry" />
        </mxCell>
        <mxCell id="9a2qwzENR8iIRFwrXo3I-3" value="NextJS - Backend&lt;br&gt;inclusive tournement tree" style="rounded=0;whiteSpace=wrap;html=1;" vertex="1" parent="1">
          <mxGeometry y="180" width="120" height="60" as="geometry" />
        </mxCell>
        <mxCell id="9a2qwzENR8iIRFwrXo3I-4" value="PocketBase" style="rounded=0;whiteSpace=wrap;html=1;" vertex="1" parent="1">
          <mxGeometry x="200" y="180" width="120" height="60" as="geometry" />
        </mxCell>
        <mxCell id="9a2qwzENR8iIRFwrXo3I-5" value="" style="endArrow=classic;html=1;rounded=0;exitX=0.5;exitY=0;exitDx=0;exitDy=0;entryX=1;entryY=0.5;entryDx=0;entryDy=0;" edge="1" parent="1" source="9a2qwzENR8iIRFwrXo3I-4" target="9a2qwzENR8iIRFwrXo3I-1">
          <mxGeometry width="50" height="50" relative="1" as="geometry">
            <mxPoint x="390" y="280" as="sourcePoint" />
            <mxPoint x="440" y="230" as="targetPoint" />
            <Array as="points">
              <mxPoint x="260" y="30" />
            </Array>
          </mxGeometry>
        </mxCell>
        <mxCell id="9a2qwzENR8iIRFwrXo3I-6" value="" style="endArrow=classic;html=1;rounded=0;exitX=1;exitY=0.5;exitDx=0;exitDy=0;" edge="1" parent="1" source="9a2qwzENR8iIRFwrXo3I-2">
          <mxGeometry width="50" height="50" relative="1" as="geometry">
            <mxPoint x="140" y="150" as="sourcePoint" />
            <mxPoint x="200" y="210" as="targetPoint" />
            <Array as="points">
              <mxPoint x="160" y="150" />
              <mxPoint x="160" y="210" />
            </Array>
          </mxGeometry>
        </mxCell>
        <mxCell id="9a2qwzENR8iIRFwrXo3I-7" value="" style="endArrow=classic;startArrow=classic;html=1;rounded=0;exitX=1;exitY=0.5;exitDx=0;exitDy=0;entryX=0;entryY=0.5;entryDx=0;entryDy=0;" edge="1" parent="1" source="9a2qwzENR8iIRFwrXo3I-3" target="9a2qwzENR8iIRFwrXo3I-4">
          <mxGeometry width="50" height="50" relative="1" as="geometry">
            <mxPoint x="390" y="280" as="sourcePoint" />
            <mxPoint x="440" y="230" as="targetPoint" />
          </mxGeometry>
        </mxCell>
        <mxCell id="9a2qwzENR8iIRFwrXo3I-10" value="K3s" style="rounded=0;whiteSpace=wrap;html=1;" vertex="1" parent="1">
          <mxGeometry x="520" width="330" height="240" as="geometry" />
        </mxCell>
        <mxCell id="9a2qwzENR8iIRFwrXo3I-11" value="Namespace&lt;div&gt;core-games&lt;/div&gt;&lt;div&gt;&lt;br&gt;&lt;/div&gt;&lt;div&gt;&lt;br&gt;&lt;/div&gt;&lt;div&gt;&lt;br&gt;&lt;/div&gt;&lt;div&gt;&lt;br&gt;&lt;/div&gt;" style="rounded=0;whiteSpace=wrap;html=1;align=left;" vertex="1" parent="1">
          <mxGeometry x="530" y="130" width="150" height="100" as="geometry" />
        </mxCell>
        <mxCell id="9a2qwzENR8iIRFwrXo3I-12" value="k8s - service" style="rounded=0;whiteSpace=wrap;html=1;" vertex="1" parent="1">
          <mxGeometry y="280" width="120" height="60" as="geometry" />
        </mxCell>
        <mxCell id="9a2qwzENR8iIRFwrXo3I-13" value="" style="endArrow=classic;startArrow=classic;html=1;rounded=0;exitX=1;exitY=0.5;exitDx=0;exitDy=0;entryX=0.5;entryY=1;entryDx=0;entryDy=0;" edge="1" parent="1" source="9a2qwzENR8iIRFwrXo3I-12" target="9a2qwzENR8iIRFwrXo3I-11">
          <mxGeometry width="50" height="50" relative="1" as="geometry">
            <mxPoint x="390" y="270" as="sourcePoint" />
            <mxPoint x="440" y="220" as="targetPoint" />
            <Array as="points">
              <mxPoint x="210" y="310" />
              <mxPoint x="605" y="310" />
            </Array>
          </mxGeometry>
        </mxCell>
        <mxCell id="9a2qwzENR8iIRFwrXo3I-14" value="" style="endArrow=classic;startArrow=classic;html=1;rounded=0;exitX=1;exitY=0.5;exitDx=0;exitDy=0;entryX=0.5;entryY=1;entryDx=0;entryDy=0;" edge="1" parent="1" source="9a2qwzENR8iIRFwrXo3I-12" target="9a2qwzENR8iIRFwrXo3I-4">
          <mxGeometry width="50" height="50" relative="1" as="geometry">
            <mxPoint x="390" y="270" as="sourcePoint" />
            <mxPoint x="440" y="220" as="targetPoint" />
            <Array as="points">
              <mxPoint x="260" y="310" />
            </Array>
          </mxGeometry>
        </mxCell>
        <mxCell id="9a2qwzENR8iIRFwrXo3I-15" value="Games Table as &quot;Message Queue&quot;" style="text;html=1;align=center;verticalAlign=middle;whiteSpace=wrap;rounded=0;" vertex="1" parent="1">
          <mxGeometry x="250" y="260" width="130" height="30" as="geometry" />
        </mxCell>
        <mxCell id="9a2qwzENR8iIRFwrXo3I-16" value="Namespcase&lt;div&gt;CORE&lt;/div&gt;&lt;div&gt;&lt;br&gt;&lt;/div&gt;&lt;div&gt;&lt;br&gt;&lt;/div&gt;&lt;div&gt;&lt;br&gt;&lt;/div&gt;&lt;div&gt;&lt;br&gt;&lt;/div&gt;" style="rounded=0;whiteSpace=wrap;html=1;align=left;" vertex="1" parent="1">
          <mxGeometry x="690" y="130" width="150" height="100" as="geometry" />
        </mxCell>
        <mxCell id="9a2qwzENR8iIRFwrXo3I-17" value="Visualizer&lt;div&gt;Service&lt;/div&gt;" style="rounded=0;whiteSpace=wrap;html=1;" vertex="1" parent="1">
          <mxGeometry x="700" y="195" width="60" height="30" as="geometry" />
        </mxCell>
        <mxCell id="9a2qwzENR8iIRFwrXo3I-18" value="Bot 1" style="rounded=0;whiteSpace=wrap;html=1;" vertex="1" parent="1">
          <mxGeometry x="538" y="195" width="40" height="30" as="geometry" />
        </mxCell>
        <mxCell id="9a2qwzENR8iIRFwrXo3I-19" value="Bot 2" style="rounded=0;whiteSpace=wrap;html=1;" vertex="1" parent="1">
          <mxGeometry x="586" y="195" width="40" height="30" as="geometry" />
        </mxCell>
        <mxCell id="9a2qwzENR8iIRFwrXo3I-20" value="Game" style="rounded=0;whiteSpace=wrap;html=1;" vertex="1" parent="1">
          <mxGeometry x="634" y="195" width="40" height="30" as="geometry" />
        </mxCell>
        <mxCell id="9a2qwzENR8iIRFwrXo3I-21" value="" style="endArrow=classic;startArrow=classic;html=1;rounded=0;entryX=0;entryY=0.5;entryDx=0;entryDy=0;exitX=1;exitY=0.5;exitDx=0;exitDy=0;" edge="1" parent="1" source="9a2qwzENR8iIRFwrXo3I-20" target="9a2qwzENR8iIRFwrXo3I-17">
          <mxGeometry width="50" height="50" relative="1" as="geometry">
            <mxPoint x="400" y="310" as="sourcePoint" />
            <mxPoint x="450" y="260" as="targetPoint" />
          </mxGeometry>
        </mxCell>
        <mxCell id="9a2qwzENR8iIRFwrXo3I-22" value="Visualizer" style="rounded=0;whiteSpace=wrap;html=1;" vertex="1" parent="1">
          <mxGeometry x="770" y="195" width="60" height="30" as="geometry" />
        </mxCell>
        <mxCell id="9a2qwzENR8iIRFwrXo3I-23" value="When game is over the service pulls the last 100 lines of the log and saves into the database" style="text;html=1;align=left;verticalAlign=middle;whiteSpace=wrap;rounded=0;" vertex="1" parent="1">
          <mxGeometry y="340" width="320" height="30" as="geometry" />
        </mxCell>
        <mxCell id="9a2qwzENR8iIRFwrXo3I-24" value="Game sends to k8s service: game status" style="text;html=1;align=left;verticalAlign=middle;whiteSpace=wrap;rounded=0;" vertex="1" parent="1">
          <mxGeometry y="370" width="320" height="30" as="geometry" />
        </mxCell>
        <mxCell id="9a2qwzENR8iIRFwrXo3I-27" value="&lt;ul&gt;&lt;li&gt;User Registration&lt;/li&gt;&lt;li&gt;Teams -&amp;gt; wenn alle OK dann Team gelockt&lt;/li&gt;&lt;li&gt;Automatische Erstellung der Repos und Einladung der User&lt;/li&gt;&lt;ul&gt;&lt;li&gt;Automatisch Repo locken wenn Zeit vorbei&lt;/li&gt;&lt;/ul&gt;&lt;li&gt;Tournament Tree berechnen&lt;/li&gt;&lt;li&gt;Game startet über Button o.Ä.&lt;/li&gt;&lt;li&gt;Events als Table&lt;/li&gt;&lt;li&gt;Game Status muss in Echtzeit aus der Datenbank gezogen werden&lt;/li&gt;&lt;li&gt;Logs sollen in Echtzeit über den k8s - service holen lassen&lt;/li&gt;&lt;li&gt;Tournament tree im Laufe des Events updaten&lt;/li&gt;&lt;/ul&gt;" style="text;html=1;align=left;verticalAlign=middle;whiteSpace=wrap;rounded=0;" vertex="1" parent="1">
          <mxGeometry y="400" width="1010" height="230" as="geometry" />
        </mxCell>
        <mxCell id="9a2qwzENR8iIRFwrXo3I-28" value="User&lt;div&gt;&lt;br&gt;&lt;/div&gt;" style="shape=process;whiteSpace=wrap;html=1;backgroundOutline=1;" vertex="1" parent="1">
          <mxGeometry x="40" y="640" width="120" height="60" as="geometry" />
        </mxCell>
        <mxCell id="9a2qwzENR8iIRFwrXo3I-29" value="team&lt;div&gt;&lt;br&gt;&lt;/div&gt;&lt;div&gt;state (open/close)&lt;/div&gt;&lt;div&gt;members&lt;/div&gt;&lt;div&gt;repo&lt;/div&gt;&lt;div&gt;event&lt;/div&gt;" style="shape=process;whiteSpace=wrap;html=1;backgroundOutline=1;" vertex="1" parent="1">
          <mxGeometry x="40" y="720" width="200" height="100" as="geometry" />
        </mxCell>
        <mxCell id="9a2qwzENR8iIRFwrXo3I-30" value="event&lt;div&gt;&lt;br&gt;&lt;/div&gt;&lt;div&gt;&lt;span style=&quot;background-color: transparent; color: light-dark(rgb(0, 0, 0), rgb(255, 255, 255));&quot;&gt;name&lt;/span&gt;&lt;/div&gt;&lt;div&gt;seed&lt;span style=&quot;background-color: transparent; color: light-dark(rgb(0, 0, 0), rgb(255, 255, 255));&quot;&gt;&lt;/span&gt;&lt;/div&gt;&lt;div&gt;&lt;span style=&quot;background-color: transparent; color: light-dark(rgb(0, 0, 0), rgb(255, 255, 255));&quot;&gt;max_team_sice&lt;/span&gt;&lt;/div&gt;&lt;div&gt;&lt;span style=&quot;background-color: transparent; color: light-dark(rgb(0, 0, 0), rgb(255, 255, 255));&quot;&gt;min_team_size&lt;/span&gt;&lt;/div&gt;&lt;div&gt;&lt;span style=&quot;background-color: transparent; color: light-dark(rgb(0, 0, 0), rgb(255, 255, 255));&quot;&gt;start_date&lt;/span&gt;&lt;/div&gt;" style="shape=process;whiteSpace=wrap;html=1;backgroundOutline=1;" vertex="1" parent="1">
          <mxGeometry x="40" y="840" width="200" height="100" as="geometry" />
        </mxCell>
        <mxCell id="9a2qwzENR8iIRFwrXo3I-31" value="join&lt;div&gt;&lt;br&gt;&lt;/div&gt;&lt;div&gt;&lt;span style=&quot;background-color: transparent; color: light-dark(rgb(0, 0, 0), rgb(255, 255, 255));&quot;&gt;user&lt;/span&gt;&lt;/div&gt;&lt;div&gt;&lt;span style=&quot;background-color: transparent; color: light-dark(rgb(0, 0, 0), rgb(255, 255, 255));&quot;&gt;team&lt;/span&gt;&lt;/div&gt;&lt;div&gt;&lt;span style=&quot;background-color: transparent; color: light-dark(rgb(0, 0, 0), rgb(255, 255, 255));&quot;&gt;state (accepted/ not accepted)&lt;/span&gt;&lt;/div&gt;" style="shape=process;whiteSpace=wrap;html=1;backgroundOutline=1;" vertex="1" parent="1">
          <mxGeometry x="40" y="960" width="200" height="100" as="geometry" />
        </mxCell>
        <mxCell id="9a2qwzENR8iIRFwrXo3I-32" value="match&lt;div&gt;&lt;br&gt;&lt;/div&gt;&lt;div&gt;&lt;span style=&quot;background-color: transparent; color: light-dark(rgb(0, 0, 0), rgb(255, 255, 255));&quot;&gt;teams&lt;/span&gt;&lt;/div&gt;&lt;div&gt;&lt;br&gt;&lt;/div&gt;" style="shape=process;whiteSpace=wrap;html=1;backgroundOutline=1;" vertex="1" parent="1">
          <mxGeometry x="260" y="720" width="200" height="100" as="geometry" />
        </mxCell>
        <mxCell id="9a2qwzENR8iIRFwrXo3I-33" value="&lt;p class=&quot;p1&quot;&gt;bot_match_instance&lt;/p&gt;&lt;div&gt;&lt;span style=&quot;background-color: transparent; color: light-dark(rgb(0, 0, 0), rgb(255, 255, 255));&quot;&gt;pod_id&lt;/span&gt;&lt;/div&gt;&lt;div&gt;team&lt;/div&gt;&lt;div&gt;match&lt;/div&gt;&lt;div&gt;logs&lt;/div&gt;&lt;div&gt;(win/draw/loose)&lt;/div&gt;" style="shape=process;whiteSpace=wrap;html=1;backgroundOutline=1;" vertex="1" parent="1">
          <mxGeometry x="480" y="720" width="200" height="110" as="geometry" />
        </mxCell>
      </root>
    </mxGraphModel>
  </diagram>
</mxfile>
